<svg xmlns="http://www.w3.org/2000/svg" width="375" height="62.805" viewBox="0 0 375 62.805"><defs><style>.a{fill:#27aae1;}</style></defs><g transform="translate(-16.125 -30.4)"><g transform="translate(16.125 30.4)"><path class="a" d="M262.9,31H224.8a.923.923,0,0,0-.9,1v6.8a.923.923,0,0,0,.9,1h13.4V65.4a.923.923,0,0,0,.9,1h9.1a.923.923,0,0,0,.9-1V39.8h13.8a.923.923,0,0,0,.9-1V32A.923.923,0,0,0,262.9,31Z" transform="translate(-13.861 -30.4)"/><path class="a" d="M298,57H277.9V52.7h10.4a.923.923,0,0,0,.9-1V44.4a.923.923,0,0,0-.9-1H277.8V39.8H298a.923.923,0,0,0,.9-1V32a.923.923,0,0,0-.9-1H268.8a.923.923,0,0,0-.9,1V65.4a.923.923,0,0,0,.9,1H298a.923.923,0,0,0,.9-1V58A.987.987,0,0,0,298,57Z" transform="translate(-13.453 -30.4)"/><path class="a" d="M340.3,51.6a.923.923,0,0,0-.9-1h-7.7a.923.923,0,0,0-.9,1v5.8H314.4V40.1h16.4v4.4a.923.923,0,0,0,.9,1h7.7a.923.923,0,0,0,.9-1V35.8c-.2-2.2-1.6-4.8-6.9-4.8H311.8c-5.6.3-6.8,2.9-6.8,5,.1,12.3.1,20.5,0,24.7.3,4.8,3.1,5.8,5.5,5.8h22.9a10.813,10.813,0,0,0,3.5-.7c3.2-1.2,3.7-3.5,3.5-5.3V51.6Z" transform="translate(-12.513 -30.4)"/><path class="a" d="M386.6,31h-7.8a.923.923,0,0,0-.9,1V43.5H357.2V32a.923.923,0,0,0-.9-1h-7.8a.923.923,0,0,0-.9,1V65.4a.923.923,0,0,0,.9,1h7.8a.923.923,0,0,0,.9-1V52.6h20.7V65.4a.923.923,0,0,0,.9,1h7.8a.923.923,0,0,0,.9-1V32A.871.871,0,0,0,386.6,31Z" transform="translate(-12.513 -30.4)"/><path class="a" d="M101.6,30.7H93.8a.923.923,0,0,0-.9,1v19L70.3,30.9a1.421,1.421,0,0,0-.6-.2H62a.923.923,0,0,0-.9,1V64.5a.923.923,0,0,0,.9,1h7.6a.923.923,0,0,0,.9-1V45L93,65.3a.735.735,0,0,0,.6.2h7.8a.923.923,0,0,0,.9-1V31.7A.739.739,0,0,0,101.6,30.7Z" transform="translate(-16.125 -30.4)"/><path class="a" d="M214.1,31.3a1.02,1.02,0,0,0-.8-.5h-8.5a.76.76,0,0,0-.8.6L188.7,64,170.6,45,188,32.2a1.11,1.11,0,0,0,.4-1.1.961.961,0,0,0-.9-.7H174.7c-.2,0-.3.1-.5.2L159,40.9V31.4a.923.923,0,0,0-.9-1h-7.8a.923.923,0,0,0-.9,1V64.8a.923.923,0,0,0,.9,1h7.8a.923.923,0,0,0,.9-1V53.3l3.5-2.4,14,14.7a.908.908,0,0,0,.7.3h11.1a.75.75,0,0,1,1.2,0h9.7a.961.961,0,0,0,.9-.6l2.5-6.2a.1.1,0,0,0,.1.1.909.909,0,0,0,.8.4H216a1.02,1.02,0,0,0,.8-.5.367.367,0,0,0,.1-.3l3.2,6.4a1.02,1.02,0,0,0,.8.5h8.6a1.02,1.02,0,0,0,.8-.5.908.908,0,0,0,0-1Zm-1.4,19.3H206l3.1-7.5,3.6,7.5Z" transform="translate(-14.467 -30.4)"/><path class="a" d="M130.2,31a1.02,1.02,0,0,0-.8-.5h-8.5a.76.76,0,0,0-.8.6L104.7,64a1.7,1.7,0,0,0,0,1,1.02,1.02,0,0,0,.8.5h9.7a.961.961,0,0,0,.9-.6l2.2-5.3h14.9a.6.6,0,0,0,.4-.1l2.7,5.4a1.02,1.02,0,0,0,.8.5h8.6a1.02,1.02,0,0,0,.8-.5.908.908,0,0,0,0-1Zm-1.1,19.6H122l3.2-7.8Z" transform="translate(-15.154 -30.4)"/><path class="a" d="M41.7,31a1.02,1.02,0,0,0-.8-.5H32.4a.76.76,0,0,0-.8.6L16.2,64a1.7,1.7,0,0,0,0,1,1.02,1.02,0,0,0,.8.5h9.7a.961.961,0,0,0,.9-.6l2.2-5.3H44.7a.6.6,0,0,0,.4-.1l2.7,5.4a1.02,1.02,0,0,0,.8.5h8.6a1.02,1.02,0,0,0,.8-.5.908.908,0,0,0,0-1ZM40.6,50.6H33.5l3.2-7.8Z" transform="translate(-16.125 -30.4)"/></g><g transform="translate(322.612 42.889)"><path class="a" d="M319,53.5V43.9a1.159,1.159,0,0,1,1.9-.9l5.7,4.7a1.125,1.125,0,0,1,0,1.8l-5.7,4.9A1.159,1.159,0,0,1,319,53.5Z" transform="translate(-319 -42.741)"/></g><g transform="translate(241.712 71.405)"><path class="a" d="M249.7,75.7V86.3c0,4.3-2,6.3-5.7,6.3a7.738,7.738,0,0,1-5.3-1.8l1-1.7a6.074,6.074,0,0,0,4.2,1.6c2.6,0,3.8-1.3,3.8-4.1v-1a4.834,4.834,0,0,1-4,1.9,5.908,5.908,0,0,1,0-11.8,5.114,5.114,0,0,1,4.1,2V75.8h1.9Zm-1.9,5.8a3.805,3.805,0,1,0-3.8,4A3.787,3.787,0,0,0,247.8,81.5Z" transform="translate(-238.1 -70.8)"/><path class="a" d="M261.9,80.5v7.4H260V86.3a4.023,4.023,0,0,1-3.6,1.8c-2.5,0-4.1-1.5-4.1-3.6,0-2,1.1-3.6,4.4-3.6h3.2v-.4a2.693,2.693,0,0,0-3-3,5.39,5.39,0,0,0-3.5,1.3l-.8-1.7a6.936,6.936,0,0,1,4.6-1.6C260.2,75.6,261.9,77.2,261.9,80.5Zm-2,3.7V82.5h-3.1c-2,0-2.5.9-2.5,1.9,0,1.2.9,2,2.4,2A3.245,3.245,0,0,0,259.9,84.2Z" transform="translate(-238.1 -70.8)"/><path class="a" d="M283.5,80.9V88h-2V81.2c0-2.4-1-3.6-2.9-3.6-2,0-3.3,1.4-3.3,4.1V88h-2V81.2c0-2.4-1-3.6-2.9-3.6-2,0-3.3,1.4-3.3,4.1V88h-2V75.7H267v1.8a4.346,4.346,0,0,1,3.8-1.9,3.84,3.84,0,0,1,3.8,2.3,4.791,4.791,0,0,1,4.2-2.3C281.6,75.6,283.5,77.3,283.5,80.9Z" transform="translate(-238.1 -70.8)"/><path class="a" d="M296.7,82.5h-9a3.866,3.866,0,0,0,4,3.6,3.935,3.935,0,0,0,3.2-1.5L296,86a5.288,5.288,0,0,1-4.4,2c-3.6,0-5.9-2.6-5.9-6.3,0-3.6,2.4-6.2,5.5-6.2s5.5,2.5,5.5,6.3A1.635,1.635,0,0,1,296.7,82.5Zm-8.9-1.6h7.1a3.539,3.539,0,0,0-3.5-3.5A3.629,3.629,0,0,0,287.8,80.9Z" transform="translate(-238.1 -70.8)"/><path class="a" d="M303.3,81.8c0-3.7,2.4-6.2,5.8-6.2a4.83,4.83,0,0,1,4.5,2.6l-1.5,1.1a3.409,3.409,0,0,0-3-1.8c-2.2,0-3.8,1.7-3.8,4.3,0,2.7,1.6,4.3,3.8,4.3a3.409,3.409,0,0,0,3-1.8l1.5,1.1a4.83,4.83,0,0,1-4.5,2.6C305.7,88.1,303.3,85.5,303.3,81.8Z" transform="translate(-238.1 -70.8)"/><path class="a" d="M326.1,80.9V88h-2V81.2c0-2.4-1.1-3.6-3-3.6-2.1,0-3.5,1.4-3.5,4.1V88h-2V70.8h2v6.6a4.526,4.526,0,0,1,3.9-1.9C324.2,75.6,326.1,77.3,326.1,80.9Z" transform="translate(-238.1 -70.8)"/><path class="a" d="M338.1,80.5v7.4h-1.9V86.3a4.023,4.023,0,0,1-3.6,1.8c-2.5,0-4.1-1.5-4.1-3.6,0-2,1.1-3.6,4.4-3.6h3.2v-.4a2.693,2.693,0,0,0-3-3,5.39,5.39,0,0,0-3.5,1.3l-.8-1.7a6.936,6.936,0,0,1,4.6-1.6C336.4,75.6,338.1,77.2,338.1,80.5Zm-2,3.7V82.5H333c-2,0-2.5.9-2.5,1.9,0,1.2.9,2,2.4,2A3.161,3.161,0,0,0,336.1,84.2Z" transform="translate(-238.1 -70.8)"/><path class="a" d="M351.9,80.9V88h-2V81.2c0-2.4-1.1-3.6-3-3.6-2.1,0-3.5,1.4-3.5,4.1V88h-2V75.7h1.9v1.9a4.656,4.656,0,0,1,4-2C350,75.6,351.9,77.3,351.9,80.9Z" transform="translate(-238.1 -70.8)"/><path class="a" d="M365.8,75.7V86.3c0,4.3-2,6.3-5.7,6.3a7.738,7.738,0,0,1-5.3-1.8l1-1.7a6.074,6.074,0,0,0,4.2,1.6c2.6,0,3.8-1.3,3.8-4.1v-1a4.834,4.834,0,0,1-4,1.9,5.908,5.908,0,0,1,0-11.8,5.114,5.114,0,0,1,4.1,2V75.8h1.9Zm-2,5.8a3.8,3.8,0,1,0-3.8,4A3.731,3.731,0,0,0,363.8,81.5Z" transform="translate(-238.1 -70.8)"/><path class="a" d="M379.1,82.5h-9a3.866,3.866,0,0,0,4,3.6,3.935,3.935,0,0,0,3.2-1.5l1.1,1.4a5.288,5.288,0,0,1-4.4,2c-3.6,0-5.9-2.6-5.9-6.3,0-3.6,2.4-6.2,5.5-6.2s5.5,2.5,5.5,6.3A1.634,1.634,0,0,1,379.1,82.5Zm-8.9-1.6h7.1a3.539,3.539,0,0,0-3.5-3.5A3.629,3.629,0,0,0,370.2,80.9Z" transform="translate(-238.1 -70.8)"/><path class="a" d="M387.5,75.6v2.2H387c-2.1,0-3.5,1.5-3.5,4.1V88h-2V75.7h1.9v2.1C384.1,76.3,385.5,75.6,387.5,75.6Z" transform="translate(-238.1 -70.8)"/></g></g></svg>